# xmcd CD database file
#
# Track frame offsets:
#	182
#	16440
#	30262
#	46062
#	63847
#	81057
#	97682
#	116715
#	129767
#	149552
#	168265
#	187282
#	203672
#	219787
#	232007
#	250932
#	268827
#	282182
#	299745
#	313312
#
# Disc length: 4439 seconds
#
# Revision: 0
# Processed by: cddbd v1.5.2PL0 Copyright (c) Steve Scherf et al.
# Submitted via: CDex 1.70beta2
#
DISCID=21115514
DTITLE=Burt Bacharach - Bacharach Moods
DYEAR=1900
DGENRE=Jazz
TTITLE0=Do you know the way to San Jose
TTITLE1=Always Something there to remind me
TTITLE2=A message to Michael
TTITLE3=Maybe
TTITLE4=Arthur's Theme
TTITLE5=Raindrops keep falling on my head
TTITLE6=The look of love
TTITLE7=The windows of the World
TTITLE8=Stronger than before
TTITLE9=Close to you
TTITLE10=Walk on by
TTITLE11=Anyone who had a heart
TTITLE12=I'll never fall in Love again
TTITLE13=Magic moments
TTITLE14=This guy's in love with you
TTITLE15=Tains and Boats and Planes
TTITLE16=Alfie
TTITLE17=I say a little Prayer
TTITLE18=What the world needs now is Love
TTITLE19=That's what friends are for
EXTD=
EXTT0=
EXTT1=
EXTT2=
EXTT3=
EXTT4=
EXTT5=
EXTT6=
EXTT7=
EXTT8=
EXTT9=
EXTT10=
EXTT11=
EXTT12=
EXTT13=
EXTT14=
EXTT15=
EXTT16=
EXTT17=
EXTT18=
EXTT19=
PLAYORDER=
